<?xml version="1.0" encoding="UTF-8"?>
<svg id="Calque_5_-_copie_2_copy_5" xmlns="http://www.w3.org/2000/svg" version="1.1" xmlns:xlink="http://www.w3.org/1999/xlink" viewBox="0 0 3380.6 3242.6">
  <!-- Generator: Adobe Illustrator 29.8.1, SVG Export Plug-In . SVG Version: 2.1.1 Build 2)  -->
  <defs>
    <style>
      .st0 {
        fill: none;
      }

      .st1 {
        fill: #F5C218;
      }

      .st2 {
        fill: #B58E0B;
      }

      .st3 {
        clip-path: url(#clippath);
      }
    </style>
    <clipPath id="clippath">
      <path class="st0" d="M2253.2,3002.5h0c-7.3-9.5-17.4-19.1-30.6-28.8-42.3-31.2-70.1-61.6-86.1-91.1-123.4-227.4,455.4-396.2,455.4-396.2l55.5-39.4-872.6-381.9-567.4-129.5s297.4,307.7,2.5,769.2c-36.9,57.7-83.1,117.9-140.3,180.2-496,539.8,1379.8,373.9,1183.6,117.6Z"/>
    </clipPath>
  </defs>
  <path class="st1" d="M2253.2,3002.5h0c-7.3-9.5-17.4-19.1-30.6-28.8-42.3-31.2-70.1-61.6-86.1-91.1-123.4-227.4,455.4-396.2,455.4-396.2l55.5-39.4-872.6-381.9-567.4-129.5s297.4,307.7,2.5,769.2c-36.9,57.7-83.1,117.9-140.3,180.2-496,539.8,1379.8,373.9,1183.6,117.6Z"/>
  <g class="st3">
    <path class="st2" d="M1259.9,2534.8s-168.3,193.1,483.6,303.3c651.9,110.2,573.7-369.1,573.7-369.1l-1018.3-501.9-39.1,567.8Z"/>
  </g>
  <path class="st1" d="M3180,355.3s-537-628.2-1917.3-213.9c-115.3,34.6-242.7,78.2-242.7,78.2-57.2,19.6-131,44.8-205.8,73.9-248.5,96.8-374.8,143.7-448.5,251-20.1,29.2-76.6,113.7-82.3,230.4-7.7,159,87.5,201.9,144,390.9,21,70.2,87.8,332.1-37,514.3-87.1,127.1-177,83.5-279.8,209.8-121.2,149-152.4,401.4-45.3,596.6,79.4,144.7,259.5,302.7,423.8,263.3,125.2-30,189.4-162.4,238.6-267.4,242.1-517.1,59.1-1130.7,37-1201.4-76.4-245.1-176.6-403.8-111.1-464.9,48.7-45.4,169.5-6.9,242.7,49.4,102.7,78.9,125.7,204.2,135.8,263.3,83.7,492.1-19.7,641.1,62.5,852.9,52.9,136.2,443,320.6,1226.5,671.8,95.8,43,174.2,76.9,275.1,63.1,284.7-38.8,443.9-416.1,572.6-721.4,101-239.6,258.6-620.6,198.4-1104.7-25.7-206.7-59.7-375.4-187.3-535Z"/>
</svg>