<?xml version="1.0" encoding="UTF-8"?>
<svg id="Calque_5_-_copie_2_copy" data-name="Calque 5 - copie 2 copy" xmlns="http://www.w3.org/2000/svg" viewBox="0 0 5000 5000">
  <defs>
    <style>
      .cls-1 { fill: #9B005C; }
      .cls-2 { fill: #FF1796; }
    </style>
  </defs>
  <path class="cls-1" d="M3062.93,3881.23h0c-7.26-9.5-17.38-19.13-30.57-28.84-42.32-31.18-70.08-61.62-86.05-91.07-123.4-227.41,455.41-396.2,455.41-396.2l55.48-39.35-872.61-381.88-567.43-129.55s297.4,307.7,2.46,769.17c-36.91,57.75-83.09,117.9-140.3,180.17-495.96,539.81,1379.83,373.91,1183.61,117.55Z"/>
  <path class="cls-2" d="M3989.69,1234.02s-536.99-628.24-1917.26-213.94c-115.26,34.59-242.74,78.17-242.74,78.17-57.2,19.55-131.02,44.79-205.83,73.93-248.48,96.8-374.79,143.74-448.46,250.97-20.07,29.21-76.61,113.72-82.29,230.4-7.73,159,87.54,201.86,144,390.86,20.97,70.2,87.82,332.07-37.03,514.29-87.06,127.06-176.97,83.53-279.77,209.83-121.25,148.96-152.37,401.43-45.26,596.57,79.44,144.72,259.51,302.72,423.77,263.31,125.22-30.04,189.44-162.37,238.63-267.43,242.11-517.12,59.05-1130.73,37.03-1201.37-76.4-245.07-176.64-403.81-111.09-464.91,48.71-45.41,169.48-6.89,242.74,49.37,102.69,78.86,125.71,204.22,135.77,263.31,83.75,492.05-19.66,641.14,62.51,852.87,52.86,136.21,442.96,320.64,1226.46,671.85,95.84,42.96,174.2,76.88,275.05,63.13,284.74-38.83,443.86-416.09,572.65-721.45,101.04-239.57,258.63-620.56,198.4-1104.72-25.72-206.74-59.73-375.42-187.29-535.04Z"/>
  <path class="cls-2" d="M3062.93,3881.23h0c-7.26-9.5-17.38-19.13-30.57-28.84-42.32-31.18-70.08-61.62-86.05-91.07,0,0-113.35,135.75-612.03,0-209.49-57.03-290.81-121.83-314.66-177.82-36.91,57.75-83.09,117.9-140.3,180.17-495.96,539.81,1379.83,373.91,1183.61,117.55Z"/>
</svg>